<svg xmlns="http://www.w3.org/2000/svg" width="28" height="26" viewBox="0 0 28 26">
    <path fill="#59218A" fill-rule="evenodd" d="M23.385 14.857h-4.923V9.905h4.923v4.952zm-7.385 0h-4.923V9.905H16v4.952zm0 7.429h-4.923v-4.953H16v4.953zm-7.385-7.429H3.692V9.905h4.923v4.952zm0 7.429H3.692v-4.953h4.923v4.953zm16-19.81h-2.461V0h-2.462v6.19h-2.461V2.476H9.846V0H7.385v6.19H4.923V2.476H2.462A2.472 2.472 0 0 0 0 4.952v18.572A2.471 2.471 0 0 0 2.462 26h22.153a2.471 2.471 0 0 0 2.462-2.476V4.952a2.472 2.472 0 0 0-2.462-2.476z"/>
</svg>
