<svg xmlns="http://www.w3.org/2000/svg" width="28" height="17" viewBox="0 0 28 17">
    <path fill="#DADFEA" fill-rule="nonzero" d="M13.996.042C8.648.042 3.798 2.967.219 7.72c-.292.39-.292.933 0 1.323 3.579 4.758 8.429 7.684 13.777 7.684 5.348 0 10.198-2.926 13.776-7.679.292-.389.292-.933 0-1.322C24.194 2.967 19.344.042 13.996.042zm.383 14.217a5.89 5.89 0 0 1-6.258-6.258c.183-2.932 2.56-5.308 5.491-5.492a5.89 5.89 0 0 1 6.259 6.259c-.19 2.926-2.566 5.302-5.492 5.491zm-.177-2.714a3.165 3.165 0 0 1-3.367-3.367 3.184 3.184 0 0 1 2.96-2.96 3.165 3.165 0 0 1 3.367 3.367 3.184 3.184 0 0 1-2.96 2.96z"/>
</svg>
