<svg xmlns="http://www.w3.org/2000/svg" xmlns:xlink="http://www.w3.org/1999/xlink" width="24" height="24" viewBox="0 0 24 24">
    <defs>
        <path id="a" d="M12.169 9.624v4.752s4.675-.006 6.579-.006c-1.032 3.081-2.634 4.759-6.58 4.759-3.991 0-7.108-3.192-7.108-7.13 0-3.936 3.117-7.128 7.109-7.128 2.11 0 3.474.732 4.724 1.752 1.001-.987.917-1.128 3.464-3.5A12.219 12.219 0 0 0 12.169 0C5.449 0 0 5.372 0 12c0 6.627 5.449 12 12.169 12 10.045 0 12.5-8.626 11.687-14.376H12.169"/>
    </defs>
    <g fill="none" fill-rule="evenodd">
        <mask id="b" fill="#fff">
            <use xlink:href="#a"/>
        </mask>
        <use fill="#FFF" xlink:href="#a"/>
        <g fill="#D3DEE3" mask="url(#b)">
            <path d="M0 0h24v24H0z"/>
        </g>
    </g>
</svg>
