<svg xmlns="http://www.w3.org/2000/svg" xmlns:xlink="http://www.w3.org/1999/xlink" width="24" height="24" viewBox="0 0 24 24">
    <defs>
        <path id="a" d="M16.85 0h-9.7C3.207 0 0 3.207 0 7.15v9.7C0 20.793 3.207 24 7.15 24h9.7c3.943 0 7.15-3.207 7.15-7.15v-9.7C24 3.207 20.793 0 16.85 0zm4.736 16.85a4.735 4.735 0 0 1-4.736 4.736h-9.7a4.735 4.735 0 0 1-4.736-4.736v-9.7A4.735 4.735 0 0 1 7.15 2.414h9.7a4.735 4.735 0 0 1 4.736 4.736v9.7zm-3.367-9.523a1.487 1.487 0 1 0 0-2.975 1.487 1.487 0 0 0 0 2.975zm-6.001 8.684a3.793 3.793 0 1 1 0-7.586 3.793 3.793 0 0 1 0 7.586zm0-10a6.214 6.214 0 0 0-6.207 6.207 6.214 6.214 0 0 0 6.207 6.207 6.214 6.214 0 0 0 6.207-6.207 6.214 6.214 0 0 0-6.207-6.207z"/>
    </defs>
    <g fill="none" fill-rule="evenodd">
        <mask id="b" fill="#fff">
            <use xlink:href="#a"/>
        </mask>
        <use fill="#FFF" xlink:href="#a"/>
        <g fill="#D3DEE3" mask="url(#b)">
            <path d="M0 0h24v24H0z"/>
        </g>
    </g>
</svg>
