<svg xmlns="http://www.w3.org/2000/svg" width="17" height="20" viewBox="0 0 17 20">
    <path fill="#59218A" fill-rule="nonzero" d="M16.513 9.489a1.315 1.315 0 0 0-.966-.398h-.454V6.364c0-1.743-.625-3.239-1.875-4.489S10.472 0 8.73 0C6.987 0 5.49.625 4.24 1.875c-1.25 1.25-1.875 2.746-1.875 4.489V9.09h-.454c-.38 0-.701.132-.966.398a1.315 1.315 0 0 0-.398.966v8.181c0 .38.133.701.398.966s.587.398.966.398h13.636c.379 0 .7-.132.966-.398.265-.265.397-.587.397-.966v-8.181c0-.38-.132-.701-.398-.966zm-4.147-.398H5.093V6.364c0-1.004.356-1.861 1.066-2.571a3.504 3.504 0 0 1 2.57-1.066c1.005 0 1.861.355 2.572 1.066a3.504 3.504 0 0 1 1.065 2.57v2.728z"/>
</svg>
