<svg xmlns="http://www.w3.org/2000/svg" xmlns:xlink="http://www.w3.org/1999/xlink" width="125" height="125" viewBox="0 0 125 125">
    <defs>
        <rect id="a" width="125" height="125" rx="5"/>
    </defs>
    <g fill="none" fill-rule="evenodd">
        <g>
            <use fill="#8C97B2" xlink:href="#a"/>
            <rect width="124" height="124" x=".5" y=".5" stroke="#DADFEA" rx="5"/>
        </g>
        <path fill="#DADFEA" fill-rule="nonzero" d="M46.034 97.796l-18.125 9.872c-.71.386-3.448 5.974-8.216 16.764l88.758-.03c-4.985-10.681-7.867-16.216-8.646-16.603l-19.41-9.69a7.39 7.39 0 0 1-4.091-6.61v-7.604c.545-.62 1.169-1.416 1.836-2.357 2.645-3.731 4.647-7.835 6.033-12.14 2.49-.767 4.324-3.063 4.324-5.792V55.49c0-1.786-.796-3.381-2.031-4.498V39.259S88.879 21 64.116 21c-24.764 0-22.35 18.259-22.35 18.259v11.733c-1.238 1.117-2.031 2.712-2.031 4.498v8.116c0 2.138 1.125 4.02 2.81 5.107 2.031 8.828 7.35 15.182 7.35 15.182v7.417a7.397 7.397 0 0 1-3.86 6.484z"/>
    </g>
</svg>
