<svg xmlns="http://www.w3.org/2000/svg" width="21" height="24" viewBox="0 0 21 24">
    <path fill="#59218A" fill-rule="nonzero" d="M20.335 21.394a48.525 48.525 0 0 0-.84-1.963c-.263-.578-.6-.748-1.232-.603-.8.184-1.585.428-2.385.593-1.546.324-3.096.354-4.622-.13-1.913-.603-2.932-1.993-3.558-3.787h5.188a.735.735 0 0 0 .736-.738v-1.64a.735.735 0 0 0-.736-.737H7.201c0-.459-.005-.897 0-1.336h5.685a.735.735 0 0 0 .736-.737v-1.64a.735.735 0 0 0-.736-.738h-4.97c0-.02 0-.04.01-.05.597-1.36 1.466-2.451 2.893-3.02 1.66-.657 3.354-.642 5.064-.289.81.165 1.605.414 2.415.598.591.135.934-.04 1.188-.593.293-.638.561-1.285.83-1.938.253-.613.104-1.047-.473-1.386a3.068 3.068 0 0 0-.447-.214C17.001.109 14.531-.24 11.982.169c-1.794.289-3.47.907-4.915 2.033C5.243 3.618 4.06 5.486 3.374 7.684l-.084.254H.735A.735.735 0 0 0 0 8.676v1.64c0 .408.328.737.735.737h2.013v1.336H.735a.735.735 0 0 0-.735.737v1.64c0 .409.328.738.735.738h2.426c.184.598.338 1.206.571 1.779 1.228 2.97 3.285 5.083 6.381 6.09 2.56.832 5.139.807 7.718.095.67-.185 1.337-.424 1.973-.718.616-.284.775-.762.531-1.356z"/>
</svg>
