<svg xmlns="http://www.w3.org/2000/svg" xmlns:xlink="http://www.w3.org/1999/xlink" width="49" height="49" viewBox="0 0 49 49">
    <defs>
        <path id="a" d="M0 .227v8.062h14.144V.227H0z"/>
    </defs>
    <g fill="none" fill-rule="evenodd" transform="rotate(90 24.5 24.5)">
        <circle cx="24.5" cy="24.5" r="24.5" fill="#59218A" transform="matrix(-1 0 0 1 49 0)"/>
        <g transform="matrix(0 1 1 0 21 18)">
            <mask id="b" fill="#fff">
                <use xlink:href="#a"/>
            </mask>
            <path fill="#FFF" d="M7.072 8.29a.987.987 0 0 1-.7-.29L.291 1.918A.99.99 0 1 1 1.69.516l5.38 5.382 5.383-5.38a.99.99 0 0 1 1.4 1.4L7.772 8a.984.984 0 0 1-.7.29z" mask="url(#b)"/>
        </g>
    </g>
</svg>
