<svg xmlns="http://www.w3.org/2000/svg" width="23" height="23" viewBox="0 0 23 23">
    <g fill="#59218A" fill-rule="evenodd">
        <path d="M21.808 6.009l-2.95-2.952c-4.07-4.07-10.69-4.07-14.759 0L1.15 6.009a2.073 2.073 0 0 0-.612 1.476c0 .556.217 1.08.611 1.475l2.213 2.213c.395.394.919.611 1.476.611a2.07 2.07 0 0 0 1.475-.611L8.528 8.96c.393-.395.61-.919.61-1.475 0-.558-.217-1.082-.61-1.476L6.364 3.847a8.355 8.355 0 0 1 10.229 0L14.429 6.01a2.09 2.09 0 0 0 0 2.95l2.214 2.213c.394.394.918.611 1.475.611.559 0 1.082-.217 1.477-.611l2.213-2.213a2.088 2.088 0 0 0 0-2.951"/>
        <path d="M11.478 20.87a3.13 3.13 0 1 1 0-6.26 3.13 3.13 0 0 1 0 6.26m3.13-8.264v-2.17h-2.086v2.086h-2.087v-2.087H8.348v2.17c-3.534.509-6.261 3.549-6.261 7.222v3.13H20.87v-3.13c0-3.673-2.727-6.713-6.261-7.221"/>
    </g>
</svg>
