<svg xmlns="http://www.w3.org/2000/svg" width="17" height="16" viewBox="0 0 17 16">
    <path fill="#FFF" fill-rule="evenodd" d="M14.476 9.143H11.43V6.095h3.047v3.048zm-4.571 0H6.857V6.095h3.048v3.048zm0 4.571H6.857v-3.047h3.048v3.047zM5.333 9.143H2.286V6.095h3.047v3.048zm0 4.571H2.286v-3.047h3.047v3.047zm9.905-12.19h-1.524V0H12.19v3.81h-1.523V1.524H6.095V0H4.571v3.81H3.048V1.524H1.524C.684 1.524 0 2.208 0 3.048v11.428C0 15.316.683 16 1.524 16h13.714c.84 0 1.524-.683 1.524-1.524V3.048c0-.84-.684-1.524-1.524-1.524z"/>
</svg>
